<?xml version="1.0" encoding="UTF-8"?>
<svg xmlns="http://www.w3.org/2000/svg" viewBox="0 0 615 357" width="615" height="357">
<path d="M206.75 153.18C210.23 154.54 213.83 158.63 216.64 161.13C225.1 168.66 234.19 175.59 242.94 182.8C246.44 185.67 251 191.42 255.4 192.44C255.4 179.44 255.4 166.45 255.4 153.45C260.41 153.45 265.42 153.45 270.44 153.45C272.1 158.46 270.93 165.46 270.93 170.75C270.93 182.92 270.93 195.08 270.93 207.25C270.93 210.25 271.75 222.68 270.25 224.32C254.25 211.44 238.25 198.56 222.25 185.67C221.92 198.53 221.58 211.39 221.25 224.24C217.81 225.16 209.32 225.63 206.25 223.84C205.59 218.11 206.12 212.02 206.12 206.25C206.12 194.58 206.12 182.92 206.12 171.25C206.12 167.95 205.13 155.17 206.75 153.18ZM192.21 153.75C192.21 159.04 192.21 164.34 192.21 169.63C183.27 170.63 173.76 169.78 164.75 169.78C147.08 169.78 129.42 169.78 111.75 169.78C100.42 169.78 86.14 167.27 77.37 176.12C65.59 188 75.84 208.42 91.75 208.21C96.5 208.15 107.95 203.43 108.25 197.74C102.89 197.41 97.53 197.08 92.17 196.75C92.17 191.58 92.17 186.42 92.17 181.25C95.19 179.95 99.47 180.71 102.75 180.71C109.28 180.72 120.75 179.45 126.75 180.96C128.23 184.43 127.42 187.66 127.12 191.25C126 205.13 117.44 218.49 103.64 222.83C84.43 228.86 64.72 219.21 57.69 200.57C55.64 195.15 55.14 187.92 56.39 182.23C59.55 167.83 70.11 157.51 84.4 154.22C92.74 152.3 102.22 153.41 110.75 153.41C125.42 153.41 140.08 153.41 154.75 153.41C163.08 153.41 171.42 153.41 179.75 153.41C183.76 153.41 188.31 152.9 192.21 153.75ZM340.04 153.42C340.04 158.43 340.04 163.44 340.04 168.46C326.92 168.46 313.81 168.46 300.7 168.46C300.7 172.39 300.7 176.32 300.7 180.25C313.81 180.51 326.92 180.77 340.03 181.03C340.03 185.78 340.03 190.54 340.03 195.3C326.9 195.61 313.77 195.93 300.65 196.25C300.65 200.82 300.65 205.39 300.65 209.96C313.77 209.96 326.9 209.96 340.02 209.96C340.02 214.66 340.02 219.37 340.02 224.07C336.06 225.37 330.91 224.56 326.75 224.56C317.75 224.56 308.75 224.56 299.75 224.56C295.43 224.56 289.03 225.74 285.12 223.88C285.12 200.39 285.12 176.91 285.12 153.42C303.42 153.42 321.73 153.42 340.04 153.42ZM406.87 186.25C410.01 189.72 413.74 191.33 415.71 196.02C416.86 198.75 417.05 201.83 416.97 204.75C416.3 229.34 386.78 224.56 370.25 224.56C365.12 224.56 358.93 225.47 353.98 224.11C353.98 200.66 353.98 177.2 353.98 153.75C358.68 152.64 364.4 153.4 369.25 153.41C379.1 153.43 395.01 151.15 403.63 156.12C413.91 162.03 417.41 178.7 406.87 186.25ZM426.85 153.58C435.64 152.68 444.89 153.41 453.75 153.41C459.53 153.41 465.89 152.74 471.42 154.81C484.75 159.81 492.05 176.87 484.27 189.53C481.19 194.54 476.44 196.14 472.38 199.75C475.55 205.24 479.59 210.79 483.42 215.83C485.15 218.11 488.59 221.38 488.75 224.22C484.65 225.5 479.06 224.56 474.75 224.56C473.25 224.56 471.03 224.96 469.72 224.04C468.02 222.83 466.84 219.81 465.67 218.08C462.4 213.25 458.2 208.32 455.75 203.04C451.55 203.04 447.35 203.04 443.15 203.04C442.85 210.19 442.55 217.35 442.25 224.5C437.12 224.5 431.98 224.5 426.85 224.5C426.85 200.86 426.85 177.22 426.85 153.58ZM553.29 153.42C553.29 158.44 553.29 163.46 553.29 168.47C540.18 168.47 527.07 168.47 513.96 168.47C513.96 172.55 513.96 176.63 513.96 180.71C526.96 180.71 539.95 180.71 552.95 180.71C552.95 185.73 552.95 190.74 552.95 195.76C539.95 195.76 526.96 195.76 513.96 195.76C513.96 200.49 513.96 205.22 513.96 209.96C527.07 209.96 540.17 209.96 553.28 209.96C553.28 214.82 553.28 219.68 553.28 224.54C534.86 224.54 516.44 224.54 498.02 224.54C498.02 200.84 498.02 177.13 498.02 153.42C516.44 153.42 534.87 153.42 553.29 153.42ZM369.43 180.32C374.51 181.29 387.28 181.54 392.25 180.55C395.2 179.96 397.41 177.24 397.39 174.25C397.38 171.42 395.35 169.26 392.67 168.6C389.15 167.73 372.93 167.87 369.43 168.75C369.43 172.61 369.43 176.46 369.43 180.32ZM443.25 168.55C442.1 171.4 441.89 185.52 443.25 188.12C446.29 188.7 449.65 188.37 452.75 188.37C460.23 188.37 471.48 188.54 471.54 178.25C471.59 168.04 460.48 168.46 453.25 168.46C449.95 168.46 446.5 168.18 443.25 168.55ZM369.45 209.52C371.96 210.23 374.65 209.95 377.25 209.96C383.65 209.98 400.91 212.49 401.14 202.75C401.21 199.48 398.85 196.88 395.73 196.1C391.15 194.95 374.11 194.93 369.45 196.05C369.45 200.54 369.45 205.03 369.45 209.52Z" fill="#555559" fill-rule="evenodd" stroke="#555559" stroke-width="0.25" stroke-linejoin="round"/>
<path d="M191.98 180.65C191.98 186.2 191.98 191.74 191.98 197.29C173.94 197.29 155.91 197.29 137.87 197.29C137.87 191.74 137.87 186.2 137.87 180.65C155.91 180.65 173.94 180.65 191.98 180.65ZM184.5 208.1C185.33 208.1 186.17 208.11 187 208.11C187.08 208.47 187.17 208.84 187.25 209.21C189.43 209.62 189.25 211.66 190.75 213C190.43 215.78 191.58 220.2 189.13 222.38C186.91 224.35 181.07 222.62 178.25 222.91C172.06 223.56 165.49 223 159.25 222.98C153.11 222.96 146.39 223.64 140.41 222.75C138.76 218.97 139.09 213.18 140.25 209.28C144.15 208.72 148.74 209.41 152.75 209.42C160.72 209.43 168.79 208.99 176.74 209.25C179.65 209.34 181.31 209.94 184.25 209.21C184.33 208.84 184.42 208.47 184.5 208.1Z" fill="#026ab4" fill-rule="evenodd" stroke="#026ab4" stroke-width="0.25" stroke-linejoin="round"/>
<path d="M184.5 208.1C184.42 208.47 184.33 208.84 184.25 209.21C181.31 209.94 179.65 209.34 176.74 209.25C168.79 208.99 160.72 209.43 152.75 209.42C148.74 209.41 144.15 208.72 140.25 209.28C139.09 213.18 138.76 218.97 140.41 222.75C146.39 223.64 153.11 222.96 159.25 222.98C165.49 223 172.06 223.56 178.25 222.91C181.07 222.62 186.91 224.35 189.13 222.38C191.58 220.2 190.43 215.78 190.75 213C189.25 211.66 189.43 209.62 187.25 209.21C187.17 208.84 187.08 208.47 187 208.11C188.58 208.19 190.17 208.27 191.75 208.35C191.75 213.84 191.75 219.33 191.75 224.82C173.88 224.8 156 224.77 138.13 224.75C138.13 219.25 138.14 213.75 138.14 208.25C153.6 208.2 169.05 208.15 184.5 208.1Z" fill="#1a6395" fill-rule="evenodd" stroke="#1a6395" stroke-width="0.25" stroke-linejoin="round"/>
</svg>