<?xml version="1.0" encoding="UTF-8"?>
<svg xmlns="http://www.w3.org/2000/svg" viewBox="0 0 731 323" width="731" height="323">
<path d="M152.29 105.17C160.29 104.12 168.63 104.65 176.34 106.85C182.83 108.69 189.04 111.63 194.43 115.8C233.3 145.88 219.87 207.62 171.52 217.74C164.21 219.28 155.76 219.08 148.56 217.24C129.6 212.4 113.44 199.19 107.2 180.11C96.59 147.68 117.36 109.74 152.29 105.17ZM626.98 105.25C622.55 110.75 618.12 116.25 613.7 121.75C614.26 123.39 621.75 129.79 623.76 133.95C630.47 147.82 627.79 165.65 622.84 179.64C614 204.66 588.66 221.51 561.99 218.26C552.83 217.14 543.05 214.93 536.55 207.7C529.17 199.5 526.79 189.59 526.79 178.75C526.79 154.3 539.7 130.53 562.34 120.12C569.35 116.91 577.54 115.32 585.25 115.13C588.85 115.04 594.32 117.05 597.66 115.91C601.21 114.7 603.95 106.66 607.39 105.18C609.25 104.38 624.56 104.76 626.98 105.25ZM187.07 124.25C185.61 121.45 180.84 119.92 178.02 118.71C168.71 114.71 156.72 113.72 147.09 117.34C125.93 125.3 110.46 146.73 115.7 170.12C116.85 175.23 118.08 180.61 121.25 184.94C125.17 184.6 129.29 181.4 132.59 179.34C147.19 170.22 151.21 155.48 162.16 143.39C166.9 138.15 172.57 133.05 178.61 129.36C181.32 127.71 184.73 126.28 187.07 124.25ZM330.42 147.57C322.03 147.57 313.64 147.57 305.25 147.57C304.66 145.66 304.74 143.71 303.88 141.84C301.68 137.11 295.21 136.73 290.75 136.89C285.14 137.09 275.58 141.32 279.05 148.71C281.18 153.23 293.39 154.84 297.92 156.3C315.03 161.83 326.29 171.82 322.11 191.27C321.14 195.75 318.77 200.07 315.79 203.56C295.07 227.9 233.38 224.7 239.02 183.02C247.55 183.02 256.08 183.02 264.61 183.02C265.5 187.42 264.85 192.14 269.5 194.73C276.82 198.8 297.06 198.74 296.97 186.75C296.9 177.78 281.22 175.84 274.89 173.8C268.65 171.79 261.56 168.69 257.21 163.56C249.03 153.92 251.71 138.69 259.23 129.47C271.65 114.25 296.27 112.39 313.73 118.05C325.11 121.74 334.66 135.34 330.42 147.57ZM407.61 117.02C410.66 150.29 413.7 183.57 416.75 216.85C408.25 216.85 399.75 216.85 391.25 216.85C390.75 210.51 390.25 204.17 389.75 197.84C383.34 196.32 371.73 197.59 364.75 197.59C362.67 197.59 358.07 196.72 356.37 198.07C352.14 201.43 348.32 212.55 343.8 216.86C335.04 216.86 326.28 216.86 317.52 216.86C317.99 213.59 320.95 210.33 322.78 207.55C327.17 200.92 331.4 194.18 335.78 187.55C346.08 171.97 356.36 156.29 366.21 140.43C371.06 132.63 377.18 125.21 381.3 117.02C390.07 117.02 398.84 117.02 407.61 117.02ZM451.25 117.16C462.16 115.96 473.76 117 484.75 117C494.48 117 505.18 116.02 514.51 119.27C528.78 124.24 529.23 140.81 522.68 152.44C520.48 156.35 516.54 159.83 512.48 161.71C511 162.4 509.15 162.69 508.08 163.75C526.56 173.73 520.03 199.08 504.44 208.69C488.49 218.52 469.29 216.87 451.25 216.87C442.49 216.87 432.91 217.96 424.25 216.72C423.79 213.96 425.18 211.37 425.86 208.7C427.7 201.46 429.76 194.29 431.81 187.13C436.29 171.5 440.26 155.73 444.78 140.08C446.98 132.49 448.46 124.56 451.25 117.16ZM579.33 137.18C563.4 140.36 553.8 158.74 552.95 173.75C552.36 184.22 555.19 194.1 566.46 196.75C587.7 201.75 600.65 174.08 601.4 157.25C602.03 143.1 594.11 134.24 579.33 137.18ZM471.25 138.11C469.68 143.99 468.11 149.87 466.54 155.75C469.54 156.61 473.13 156.13 476.25 156.13C484.58 156.13 499.38 157.61 500.08 145.75C500.63 136.38 489.03 137.87 482.75 137.87C478.97 137.87 474.98 137.53 471.25 138.11ZM200.25 138.4C189.24 140.9 176.24 152.63 170.28 162.01C166.7 167.64 163.79 173.62 159.62 178.88C155.02 184.66 149.62 189.58 143.57 193.8C140.71 195.79 137.15 197 134.52 199.25C139.83 206.41 159.65 209.14 167.75 207.42C192.73 202.11 209.88 181.35 206.22 155.1C205.47 149.72 204 142.54 200.25 138.4ZM387.25 145.25C380.58 156.87 373.92 168.48 367.25 180.1C374.35 180.1 381.45 180.1 388.55 180.1C388.12 168.48 387.68 156.87 387.25 145.25ZM461.25 174.18C459.3 181.37 457.36 188.56 455.41 195.75C458.62 196.62 462.41 196.13 465.75 196.13C474.71 196.13 491.65 197.97 493.03 185.25C494.4 172.65 482.72 173.87 473.75 173.87C469.68 173.87 465.23 173.39 461.25 174.18Z" fill="#c41100" fill-rule="evenodd" stroke="#c41100" stroke-width="0.25" stroke-linejoin="round"/>
</svg>