<?xml version="1.0" encoding="UTF-8"?>
<svg xmlns="http://www.w3.org/2000/svg" viewBox="0 0 1095 1095" width="1095" height="1095">
<path d="M524.03 0.17C539.67 0.17 555.32 0.17 570.96 0.17C577.33 2.08 589.29 1.48 596.5 2.02C608.17 2.89 619.86 4.54 631.44 6.27C674.19 12.68 716.28 24.71 756.31 41.18C900.85 100.63 1015.28 222.85 1065.79 370.65C1076.93 403.26 1085.44 437.34 1089.84 471.52C1091.5 484.47 1092.62 497.46 1093.78 510.5C1094.25 515.81 1093.4 521.85 1094.83 526.91C1094.83 540.64 1094.83 554.37 1094.83 568.11C1093.4 573.16 1094.25 579.19 1093.78 584.5C1092.62 597.54 1091.49 610.52 1089.84 623.48C1085.49 657.64 1076.99 691.79 1065.79 724.35C1014.82 872.53 901.08 993.74 756.32 1053.83C716.44 1070.39 674.14 1082.5 631.45 1088.76C619.87 1090.46 608.18 1092.11 596.5 1092.98C589.32 1093.51 577.57 1092.94 571.17 1094.83C555.15 1094.83 539.14 1094.83 523.12 1094.83C518.65 1093.53 513.25 1094.2 508.5 1093.76C495.8 1092.59 483.14 1091.51 470.53 1089.83C437.31 1085.38 404.64 1077.04 372.79 1066.65C224.01 1018.08 100.56 900.54 41.18 756.3C24.68 716.21 12.87 674.17 6.31 631.38C4.49 619.53 2.75 607.46 1.99 595.5C1.54 588.39 2.05 576.2 0.17 569.95C0.17 554.99 0.17 540.02 0.17 525.06C2.05 518.81 1.53 506.61 1.99 499.5C2.75 487.54 4.49 475.47 6.31 463.62C12.9 420.77 24.82 378.89 41.19 338.7C99.78 194.84 222.74 79.25 369.82 29.4C402.53 18.31 436.32 9.84 470.54 5.21C483.17 3.5 495.83 2.59 508.52 1.26C513.55 0.74 519.27 1.59 524.03 0.17ZM320.5 439.98C315.25 437.99 308.13 439.14 302.5 439.14C290.17 439.14 277.83 439.14 265.5 439.14C236.83 439.14 208.17 439.14 179.5 439.14C170.17 439.14 160.83 439.14 151.5 439.14C146.21 439.14 140.64 438.65 135.43 439.5C132.03 444.47 131.98 452.49 130.85 458.47C129.46 465.8 128.17 473.13 126.85 480.45C126.02 485.03 124.38 489.83 124.53 494.5C128.18 497.48 133.8 496.39 138.5 496.39C149.17 496.39 159.83 496.39 170.5 496.39C202.5 496.39 234.5 496.39 266.5 496.39C276.17 496.39 285.83 496.39 295.5 496.39C300.58 496.39 306.15 497.08 310.97 495.5C312.38 492.43 312.63 488.93 313.23 485.56C314.82 476.59 316.52 467.58 318.25 458.63C319.38 452.78 321.92 445.79 320.5 439.98ZM322.5 644.7C327.46 647.32 334.93 645.98 340.5 645.98C354.5 645.98 368.5 645.98 382.5 645.98C424.24 645.98 467.05 646.54 499.9 616.42C526.58 591.95 540.59 551.09 540.89 515.5C541.07 494.37 535.01 472.32 517.84 458.63C492.31 438.29 458.39 439.29 427.5 439.29C412.17 439.29 396.83 439.29 381.5 439.29C374.31 439.29 365.35 437.89 358.5 439.94C355.56 443.89 355.6 450.59 354.75 455.44C352.77 466.81 350.71 478.11 348.82 489.46C342.87 525.19 336.34 560.82 329.89 596.47C328.09 606.41 326.4 616.32 324.65 626.28C323.62 632.07 321.15 638.93 322.5 644.7ZM712.32 536.5C715.14 533.48 719.18 531.56 722.43 528.97C729.07 523.67 735.01 517.16 739.41 509.89C742.97 504.01 745.22 497.63 746.46 490.9C747.32 486.19 747.46 481.29 747.08 476.5C744.5 444.09 702.55 439.72 677.5 439.3C672.17 439.21 666.83 439.29 661.5 439.29C654.83 439.29 648.17 439.29 641.5 439.29C625.5 439.29 609.5 439.29 593.5 439.29C588.41 439.29 579.42 437.5 575.06 440.54C572.23 442.52 572.26 446.36 571.73 449.42C570.47 456.77 569.19 464.13 567.88 471.46C562.17 503.43 556.12 535.43 550.95 567.5C547.88 586.54 544.07 605.5 540.85 624.49C540.12 628.84 536.69 639.72 539.13 643.33C541.96 647.5 549.2 645.98 553.5 645.98C566.83 645.98 580.17 645.98 593.5 645.98C633.1 645.98 682.44 651.47 715.29 624.81C741.67 603.39 751.63 549.62 712.32 536.5ZM845.94 440.5C841.1 437.97 833.89 439.29 828.5 439.29C818.17 439.29 807.83 439.29 797.5 439.29C792.34 439.29 786.43 438.48 781.5 439.98C778.54 443.59 778.61 448.95 777.8 453.45C776.06 463.12 774.38 472.72 772.72 482.38C766.22 520.11 759.74 557.78 752.79 595.43C750.77 606.42 748.89 617.45 746.91 628.49C746.01 633.54 743.73 639.61 745.72 644.5C750.18 647.33 757.3 645.98 762.5 645.98C773.17 645.98 783.83 645.98 794.5 645.98C799.57 645.98 805.8 646.97 810.5 645.06C813.58 640.91 813.4 634.68 814.3 629.69C816.85 615.64 819.53 601.54 821.92 587.49C822.97 581.28 822.8 572.07 826.5 566.92C830.8 564.95 836.74 565.92 841.5 565.92C851.83 565.92 862.17 565.92 872.5 565.92C877.25 565.92 883.98 564.59 887.9 567.5C889.76 572.47 887.09 579.35 886.19 584.53C883.73 598.54 881.38 612.47 878.88 626.49C877.92 631.85 874.98 639.42 877.16 644.5C881.61 647.26 888.39 645.98 893.5 645.98C904.5 645.98 915.5 645.98 926.5 645.98C931.63 645.98 937.75 646.95 942.5 644.92C945.35 640.58 945.32 633.63 946.16 628.53C947.7 619.19 949.45 609.84 951.1 600.53C957.53 564.27 963.97 527.94 970.33 491.68C972.31 480.34 974.27 468.99 976.31 457.7C977.26 452.42 980.07 445.46 977.6 440.5C972.24 437.57 958.95 439.29 952.5 439.29C942.83 439.29 933.17 439.29 923.5 439.29C920.46 439.29 915.34 438.25 912.82 440.34C910.1 442.6 909.41 453.64 908.73 457.39C906.54 469.45 904.39 481.46 902.24 493.55C901.39 498.31 901.39 504.27 898.5 508.19C893.99 509.87 888.32 509.04 883.5 509.04C873.5 509.04 863.5 509.04 853.5 509.04C848.4 509.04 842.04 510.14 837.5 507.72C835.48 502.76 837.9 496.58 838.83 491.46C840.99 479.47 843.19 467.48 845.08 455.5C845.84 450.64 848.21 445.07 845.94 440.5ZM398.99 596.5C396.96 591.78 401.66 574.41 402.7 568.36C405.67 551.08 408.84 533.75 411.75 516.42C413.16 508.09 413.64 496.01 417.17 488.5C423.34 486.66 431.04 487.74 437.5 487.88C441.73 487.97 445.91 488.54 450 489.5C473.12 494.9 474.07 515.52 471.21 535.53C467.2 563.52 456.96 589.56 426.55 596.16C419.96 597.6 404.76 599.83 398.99 596.5ZM627.5 521.28C626.89 517.3 628.21 513.48 628.89 509.47C630.05 502.73 630.19 494.73 633.04 488.5C637.03 487.36 641.32 487.76 645.5 487.76C655.88 487.76 680.93 483.91 681.23 499.5C681.65 521.57 659.68 522.04 643.5 522.04C638.43 522.04 632.24 522.98 627.5 521.28ZM308.16 515.5C304.98 513.18 300.42 514.04 296.5 514.04C287.17 514.04 277.83 514.04 268.5 514.04C243.5 514.04 218.5 514.04 193.5 514.04C182.13 514.04 166.92 512.51 156.06 514.5C153.75 518.9 153.71 524.55 152.87 529.47C151.45 537.81 150.12 546.12 148.83 554.46C148.08 559.23 146.1 564.69 146.71 569.5C149.91 571.96 154.45 571.1 158.5 571.1C167.5 571.1 176.5 571.1 185.5 571.1C210.83 571.1 236.17 571.1 261.5 571.1C271.95 571.1 289.44 572.72 298.98 570.5C302.04 552.17 305.1 533.83 308.16 515.5ZM614.5 596.89C613.64 592.48 615.12 587.92 615.89 583.5C617.2 575.91 617.83 567.83 620.15 560.5C624.39 559.24 629.06 559.74 633.5 559.74C645.4 559.74 675.72 556.11 675.77 574.5C675.83 598.28 650.67 597.84 633.5 597.84C627.59 597.84 619.98 599.12 614.5 596.89ZM292.5 590.38C288.58 587.95 283.09 588.92 278.5 588.92C268.17 588.92 257.83 588.92 247.5 588.92C214.83 588.92 182.17 588.92 149.5 588.92C140.17 588.92 130.83 588.92 121.5 588.92C116.99 588.92 111.65 588.12 107.5 589.82C104.67 593.84 104.71 599.67 103.84 604.45C102.28 613.12 100.55 621.81 98.94 630.5C98.1 635.05 96.08 640.15 97.96 644.5C101.67 647.01 107.11 645.98 111.5 645.98C121.83 645.98 132.17 645.98 142.5 645.98C175.17 645.98 207.83 645.98 240.5 645.98C249.83 645.98 259.17 645.98 268.5 645.98C273.03 645.98 278.3 646.76 282.5 645.1C285.35 641.46 285.34 636.04 286.2 631.56C287.92 622.54 289.54 613.56 291.17 604.53C292 599.9 293.86 594.99 292.5 590.38ZM978.69 617.29C959.13 621.49 966.99 652.11 987.28 645.74C1004.53 640.33 997.4 613.27 978.69 617.29ZM989.5 639.65C988.36 637.6 987.22 635.55 986.07 633.5C989.91 631.57 990.51 629.7 989.5 625.44C985.62 623.04 980.98 623.71 976.5 623.81C976.16 626.05 975.23 637.68 976.33 639.21C976.93 640.04 977.67 639.6 978.5 639.84C979.17 637.55 979.83 635.26 980.5 632.97C985.3 635.23 982.95 638.69 989.41 640.5C976.65 648.76 964.53 632.62 974.73 623.22C985.33 613.45 1000.54 630.59 989.5 639.65ZM986.82 630.38C984.58 630.38 982.35 630.38 980.11 630.38C979.94 629.09 979.77 627.79 979.59 626.5C984.68 625.69 986.19 625.01 986.82 630.38Z" fill="#c91517" fill-rule="evenodd" stroke="#c91517" stroke-width="0.25" stroke-linejoin="round"/>
</svg>