<?xml version="1.0" encoding="UTF-8"?>
<svg xmlns="http://www.w3.org/2000/svg" viewBox="0 0 1095 1095" width="1095" height="1095">
<path d="M1094.83 503.81C1094.81 700.79 1094.78 897.77 1094.75 1094.75C729.92 1094.75 365.08 1094.75 0.25 1094.75C0.22 895.5 0.19 696.26 0.17 497.01C9.37 493.14 18.05 486.27 26.68 481.17C44.66 470.56 63.06 460.65 81.64 451.13C141.08 420.69 204.23 395.73 268.68 378.28C499.41 315.81 740.12 332.07 958.71 429.79C1005.73 450.81 1052.02 475.14 1094.83 503.81ZM884.75 918.81C889.55 902.49 895.39 886.44 900.7 870.27C913.96 829.9 927.82 789.71 940.6 749.19C948.3 724.76 956.79 700.59 964.64 676.22C966.01 671.98 967.71 667.73 968.81 663.42C970.39 657.26 971.31 651.34 973.94 645.47C982.86 625.59 999.89 610.74 1018.19 599.65C1027.6 593.95 1037.92 589.89 1046.79 583.32C1053.24 578.54 1056.05 573.55 1055.88 565.5C1055.81 562.08 1055.49 558.88 1053.53 555.97C1048.21 548.11 1036.18 546.52 1027.5 546.1C1005.92 545.06 984.1 545.96 962.5 545.96C937.5 545.96 912.5 545.96 887.5 545.96C873.68 545.96 858.84 543.93 845.8 549.34C822.11 559.16 809.76 584.61 801.76 607.33C794.91 626.78 788.04 646.23 781.25 665.7C778.33 674.08 775.88 682.74 772.5 690.95C762.27 657.67 752.04 624.4 741.8 591.12C625.62 591.12 509.43 591.12 393.24 591.12C376.44 638.24 359.65 685.36 342.85 732.48C342.85 685.42 342.85 638.36 342.85 591.3C324.83 590.33 306.56 591.12 288.5 591.12C254.83 591.12 221.17 591.12 187.5 591.12C158.3 591.12 127.15 587.39 100.67 602.16C76.31 615.74 57.14 642.04 52.14 669.53C50.65 677.77 51.05 686.16 51.05 694.5C51.05 705.5 51.05 716.5 51.05 727.5C51.05 761.83 51.05 796.17 51.05 830.5C51.05 849.83 51.05 869.17 51.05 888.5C51.05 898.43 49.82 909.37 51.5 919.12C119.57 919.12 187.63 919.12 255.7 919.12C249.94 926.91 244.17 934.71 238.4 942.5C252.57 943.72 267.27 942.69 281.5 942.69C308.83 942.69 336.17 942.69 363.5 942.69C386.29 942.69 410.49 945.56 430.92 933.43C444.24 925.52 454.96 913.56 462.92 900.39C465.93 895.42 470.29 883.79 473.5 880.45C488.17 880.45 502.83 880.45 517.5 880.45C521.71 893.24 525.92 906.02 530.13 918.81C648.34 918.81 766.54 918.81 884.75 918.81ZM997.31 576.5C950.64 604.83 939.54 656.81 924.69 705.25C911.44 748.47 897.13 791.4 882.66 834.23C876.39 852.77 869.19 871.17 863.73 889.96C804.45 889.96 745.17 889.96 685.89 889.96C662.71 800.77 639.53 711.58 616.34 622.39C650.78 622.39 685.22 622.39 719.66 622.39C722.05 626.9 722.97 632.33 724.33 637.26C726.64 645.59 729.14 653.85 731.41 662.18C739.22 690.75 747.54 719.21 755.71 747.68C758.76 758.33 761.73 769.02 764.77 779.67C766 783.98 766.67 789.94 769.5 793.1C786.42 742.66 804.34 692.55 821.75 642.28C825.43 631.64 829.28 621.02 832.81 610.34C836.3 599.79 837.17 590.61 846.7 583.17C859.05 573.53 875.84 576.06 890.5 576.06C913.83 576.06 937.17 576.06 960.5 576.06C972.48 576.06 985.5 574.66 997.31 576.5ZM312.04 622.5C312.04 655.69 312.04 688.88 312.04 722.07C306.31 719.5 301.07 715.19 295.84 711.64C286.3 705.17 276.7 698.81 267.16 692.37C262.41 689.17 257.78 685.46 252.77 682.7C244.54 678.16 232.61 676.23 226.55 685.07C221.93 691.82 222.77 702.18 228.07 708.4C231.59 712.54 237.33 715.63 241.65 718.91C251.3 726.24 260.94 733.62 270.72 740.79C275.57 744.35 281.06 746.9 285.86 750.6C298.47 760.31 308.63 773.55 313.76 788.7C324.97 821.8 312.74 872.75 277.28 886.76C269.66 889.77 261.54 888.94 253.5 888.94C241.17 888.94 228.83 888.94 216.5 888.94C186.83 888.94 157.17 888.94 127.5 888.94C117.83 888.94 108.17 888.94 98.5 888.94C93.01 888.94 87.26 889.41 81.88 888.5C81.88 853.19 81.88 817.89 81.88 782.58C87.2 785.34 92.09 789.08 97.12 792.41C108.72 800.09 120.29 807.84 131.82 815.65C137.16 819.26 142.4 823.33 148.07 826.43C156.24 830.9 169.67 834.87 176.43 825.9C180.7 820.25 178.44 812.83 175.3 807.23C169.74 797.32 153.16 787.68 143.75 780.72C113.34 758.23 77.34 739.04 79.04 695.5C79.37 687.2 81.75 678.65 84.38 670.81C90.68 652.06 102.98 634.12 121.75 626.3C135.58 620.54 150.86 621.99 165.5 621.99C189.5 621.99 213.5 621.99 237.5 621.99C253.83 621.99 270.17 621.99 286.5 621.99C294.76 621.99 303.99 620.9 312.04 622.5ZM581.5 622.39C605 711.58 628.51 800.76 652.01 889.95C619.11 889.95 586.21 889.95 553.31 889.95C548.71 876.62 544.1 863.3 539.5 849.98C509.55 849.98 479.59 849.98 449.64 849.98C445.17 873.96 431.2 906.13 404.14 911.55C398.51 912.67 392.22 911.94 386.5 911.94C375.17 911.94 363.83 911.94 352.5 911.94C341.5 911.94 330.5 911.94 319.5 911.94C313.69 911.94 307.56 912.46 301.86 911.5C304.83 907.16 308.4 903.23 311.42 898.9C317.42 890.3 322.69 881.2 327.33 871.79C335.02 856.18 339.77 840.01 345.15 823.57C348.82 812.32 352.77 801.17 356.47 789.93C367.64 755.99 379.63 722.29 390.78 688.34C395.62 673.6 400.71 658.94 405.67 644.23C408.09 637.05 409.86 629.07 413.42 622.39C469.45 622.39 525.47 622.39 581.5 622.39ZM489.5 698.78C478.7 732.45 467.89 766.11 457.09 799.77C480.98 799.77 504.88 799.77 528.77 799.77C515.68 766.11 502.59 732.45 489.5 698.78Z" fill="#264098" fill-rule="evenodd" stroke="#264098" stroke-width="0.25" stroke-linejoin="round"/>
<path d="M0.25 0.25C365.08 0.25 729.92 0.25 1094.75 0.25C1094.78 168.1 1094.81 335.96 1094.83 503.81C1052.02 475.14 1005.73 450.81 958.71 429.79C740.12 332.07 499.41 315.81 268.68 378.28C204.23 395.73 141.08 420.69 81.64 451.13C63.06 460.65 44.66 470.56 26.68 481.17C18.05 486.27 9.37 493.14 0.17 497.01C0.19 331.43 0.22 165.84 0.25 0.25ZM106.01 108.5C120.81 102.01 127.23 82.3 113.29 71.21C104.07 63.88 80.43 63.37 69.9 67.5C69.9 94.41 69.9 121.33 69.9 148.24C73.49 148.24 77.09 148.24 80.68 148.24C80.68 136.66 80.68 125.08 80.68 113.5C83.32 112.87 85.73 112.79 88.5 112.82C92.03 112.87 95.64 112.91 98.83 114.65C108.32 119.83 108.34 138.87 112.5 148.19C116.04 148.19 119.59 148.19 123.13 148.19C120.99 139.65 117.74 122.97 113.52 115.97C111.55 112.71 108.38 111.14 106.01 108.5ZM1035.35 68.5C1019.67 59.88 991.17 64.72 990.83 86.5C990.79 89.24 991.05 91.88 992.08 94.44C998.99 111.74 1028.75 108.72 1027.94 127.5C1027.39 140.51 1012.42 141.86 1002.61 139.75C998.73 138.92 995.3 136.73 991.5 136.11C990.76 138.91 990.01 141.7 989.27 144.5C1005.58 154.08 1037.88 151.57 1038.95 127.5C1039.08 124.44 1038.95 121.44 1037.98 118.53C1034.86 109.16 1025.85 104.68 1017.27 101.27C1010.85 98.71 1002.59 95.41 1001.82 87.5C1000.08 69.61 1022.18 73.17 1032.5 77.03C1033.45 74.19 1034.4 71.34 1035.35 68.5ZM227.09 65.96C227.09 93.4 227.09 120.85 227.09 148.3C242.64 148.3 258.19 148.3 273.74 148.3C273.74 145.32 273.74 142.34 273.74 139.37C261.83 139.37 249.92 139.37 238.01 139.37C238.01 129.51 238.01 119.64 238.01 109.78C248.65 109.78 259.3 109.78 269.94 109.78C269.94 106.85 269.94 103.92 269.94 100.98C259.29 100.98 248.64 100.98 237.99 100.98C237.99 92.3 237.99 83.62 237.99 74.94C249.25 74.94 260.5 74.94 271.76 74.94C271.76 71.94 271.76 68.95 271.76 65.96C256.87 65.96 241.98 65.96 227.09 65.96ZM429.86 65.96C409.51 65.96 389.15 65.96 368.8 65.96C368.8 68.97 368.8 71.98 368.8 74.99C377.16 74.99 385.53 74.99 393.9 74.99C393.9 99.42 393.9 123.85 393.9 148.28C397.55 148.28 401.19 148.28 404.84 148.28C404.84 123.86 404.84 99.45 404.84 75.04C413.18 75.04 421.52 75.04 429.86 75.04C429.86 72.01 429.86 68.99 429.86 65.96ZM527.98 65.96C527.98 93.41 527.98 120.86 527.98 148.31C543.3 148.31 558.63 148.31 573.95 148.31C573.95 145.37 573.95 142.44 573.95 139.5C563.82 138.89 547.61 141.17 538.63 138.5C538.63 128.94 538.63 119.38 538.63 109.81C549.29 109.81 559.94 109.81 570.59 109.81C570.59 106.87 570.59 103.92 570.59 100.97C559.94 100.97 549.29 100.97 538.64 100.97C538.64 92.3 538.64 83.62 538.64 74.95C549.93 74.95 561.23 74.95 572.53 74.95C572.53 71.95 572.53 68.96 572.53 65.96C557.68 65.96 542.83 65.96 527.98 65.96ZM677.45 66.04C677.45 93.42 677.45 120.8 677.45 148.18C680.85 148.18 684.26 148.18 687.66 148.18C687.66 125.47 687.66 102.76 687.66 80.04C692.11 91.01 699.07 101.18 705.34 111.19C713.07 123.51 720.66 135.93 728.5 148.19C732.16 148.19 735.83 148.19 739.49 148.19C739.49 120.81 739.49 93.43 739.49 66.06C736.14 66.06 732.78 66.06 729.43 66.06C729.43 88.14 729.43 110.23 729.43 132.31C718.76 108.74 701.95 88.59 689.5 66.04C685.48 66.04 681.47 66.04 677.45 66.04ZM892.07 65.98C877.24 65.98 862.41 65.98 847.58 65.98C847.58 93.16 847.58 120.33 847.58 147.5C852.89 148.97 858.92 148.31 864.5 148.31C874.28 148.31 884.06 148.45 893.84 148.23C893.84 145.27 893.84 142.31 893.84 139.34C881.97 139.34 870.11 139.34 858.25 139.34C858.25 129.5 858.25 119.65 858.25 109.8C868.87 109.8 879.48 109.8 890.1 109.8C890.1 106.86 890.1 103.93 890.1 100.99C879.48 100.99 868.87 100.99 858.25 100.99C858.25 92.31 858.25 83.62 858.25 74.93C869.53 74.93 880.8 74.93 892.07 74.93C892.07 71.95 892.07 68.97 892.07 65.98ZM81.49 104.5C79.64 97.61 80.01 81.76 81.16 74.5C88.28 73.12 97.34 72.66 103.74 76.73C111.65 81.76 112.04 94.45 104.83 100.34C98.36 105.63 89.26 104.53 81.49 104.5Z" fill="#fbaa30" fill-rule="evenodd" stroke="#fbaa30" stroke-width="0.25" stroke-linejoin="round"/>
<path d="M884.75 918.81C766.54 918.81 648.34 918.81 530.13 918.81C525.92 906.02 521.71 893.24 517.5 880.45C502.83 880.45 488.17 880.45 473.5 880.45C470.29 883.79 465.93 895.42 462.92 900.39C454.96 913.56 444.24 925.52 430.92 933.43C410.49 945.56 386.29 942.69 363.5 942.69C336.17 942.69 308.83 942.69 281.5 942.69C267.27 942.69 252.57 943.72 238.4 942.5C244.17 934.71 249.94 926.91 255.7 919.12C187.63 919.12 119.57 919.12 51.5 919.12C49.82 909.37 51.05 898.43 51.05 888.5C51.05 869.17 51.05 849.83 51.05 830.5C51.05 796.17 51.05 761.83 51.05 727.5C51.05 716.5 51.05 705.5 51.05 694.5C51.05 686.16 50.65 677.77 52.14 669.53C57.14 642.04 76.31 615.74 100.67 602.16C127.15 587.39 158.3 591.12 187.5 591.12C221.17 591.12 254.83 591.12 288.5 591.12C306.56 591.12 324.83 590.33 342.85 591.3C342.85 638.36 342.85 685.42 342.85 732.48C359.65 685.36 376.44 638.24 393.24 591.12C509.43 591.12 625.62 591.12 741.8 591.12C752.04 624.4 762.27 657.67 772.5 690.95C775.88 682.74 778.33 674.08 781.25 665.7C788.04 646.23 794.91 626.78 801.76 607.33C809.76 584.61 822.11 559.16 845.8 549.34C858.84 543.93 873.68 545.96 887.5 545.96C912.5 545.96 937.5 545.96 962.5 545.96C984.1 545.96 1005.92 545.06 1027.5 546.1C1036.18 546.52 1048.21 548.11 1053.53 555.97C1055.49 558.88 1055.81 562.08 1055.88 565.5C1056.05 573.55 1053.24 578.54 1046.79 583.32C1037.92 589.89 1027.6 593.95 1018.19 599.65C999.89 610.74 982.86 625.59 973.94 645.47C971.31 651.34 970.39 657.26 968.81 663.42C967.71 667.73 966.01 671.98 964.64 676.22C956.79 700.59 948.3 724.76 940.6 749.19C927.82 789.71 913.96 829.9 900.7 870.27C895.39 886.44 889.55 902.49 884.75 918.81ZM997.31 576.5C985.5 574.66 972.48 576.06 960.5 576.06C937.17 576.06 913.83 576.06 890.5 576.06C875.84 576.06 859.05 573.53 846.7 583.17C837.17 590.61 836.3 599.79 832.81 610.34C829.28 621.02 825.43 631.64 821.75 642.28C804.34 692.55 786.42 742.66 769.5 793.1C766.67 789.94 766 783.98 764.77 779.67C761.73 769.02 758.76 758.33 755.71 747.68C747.54 719.21 739.22 690.75 731.41 662.18C729.14 653.85 726.64 645.59 724.33 637.26C722.97 632.33 722.05 626.9 719.66 622.39C685.22 622.39 650.78 622.39 616.34 622.39C639.53 711.58 662.71 800.77 685.89 889.96C745.17 889.96 804.45 889.96 863.73 889.96C869.19 871.17 876.39 852.77 882.66 834.23C897.13 791.4 911.44 748.47 924.69 705.25C939.54 656.81 950.64 604.83 997.31 576.5ZM312.04 622.5C303.99 620.9 294.76 621.99 286.5 621.99C270.17 621.99 253.83 621.99 237.5 621.99C213.5 621.99 189.5 621.99 165.5 621.99C150.86 621.99 135.58 620.54 121.75 626.3C102.98 634.12 90.68 652.06 84.38 670.81C81.75 678.65 79.37 687.2 79.04 695.5C77.34 739.04 113.34 758.23 143.75 780.72C153.16 787.68 169.74 797.32 175.3 807.23C178.44 812.83 180.7 820.25 176.43 825.9C169.67 834.87 156.24 830.9 148.07 826.43C142.4 823.33 137.16 819.26 131.82 815.65C120.29 807.84 108.72 800.09 97.12 792.41C92.09 789.08 87.2 785.34 81.88 782.58C81.88 817.89 81.88 853.19 81.88 888.5C87.26 889.41 93.01 888.94 98.5 888.94C108.17 888.94 117.83 888.94 127.5 888.94C157.17 888.94 186.83 888.94 216.5 888.94C228.83 888.94 241.17 888.94 253.5 888.94C261.54 888.94 269.66 889.77 277.28 886.76C312.74 872.75 324.97 821.8 313.76 788.7C308.63 773.55 298.47 760.31 285.86 750.6C281.06 746.9 275.57 744.35 270.72 740.79C260.94 733.62 251.3 726.24 241.65 718.91C237.33 715.63 231.59 712.54 228.07 708.4C222.77 702.18 221.93 691.82 226.55 685.07C232.61 676.23 244.54 678.16 252.77 682.7C257.78 685.46 262.41 689.17 267.16 692.37C276.7 698.81 286.3 705.17 295.84 711.64C301.07 715.19 306.31 719.5 312.04 722.07C312.04 688.88 312.04 655.69 312.04 622.5ZM581.5 622.39C525.47 622.39 469.45 622.39 413.42 622.39C409.86 629.07 408.09 637.05 405.67 644.23C400.71 658.94 395.62 673.6 390.78 688.34C379.63 722.29 367.64 755.99 356.47 789.93C352.77 801.17 348.82 812.32 345.15 823.57C339.77 840.01 335.02 856.18 327.33 871.79C322.69 881.2 317.42 890.3 311.42 898.9C308.4 903.23 304.83 907.16 301.86 911.5C307.56 912.46 313.69 911.94 319.5 911.94C330.5 911.94 341.5 911.94 352.5 911.94C363.83 911.94 375.17 911.94 386.5 911.94C392.22 911.94 398.51 912.67 404.14 911.55C431.2 906.13 445.17 873.96 449.64 849.98C479.59 849.98 509.55 849.98 539.5 849.98C544.1 863.3 548.71 876.62 553.31 889.95C586.21 889.95 619.11 889.95 652.01 889.95C628.51 800.76 605 711.58 581.5 622.39ZM489.5 698.78C502.59 732.45 515.68 766.11 528.77 799.77C504.88 799.77 480.98 799.77 457.09 799.77C467.89 766.11 478.7 732.45 489.5 698.78Z" fill="#ffffff" fill-rule="evenodd" stroke="#ffffff" stroke-width="0.25" stroke-linejoin="round"/>
<path d="M106.01 108.5C108.38 111.14 111.55 112.71 113.52 115.97C117.74 122.97 120.99 139.65 123.13 148.19C119.59 148.19 116.04 148.19 112.5 148.19C108.34 138.87 108.32 119.83 98.83 114.65C95.64 112.91 92.03 112.87 88.5 112.82C85.73 112.79 83.32 112.87 80.68 113.5C80.68 125.08 80.68 136.66 80.68 148.24C77.09 148.24 73.49 148.24 69.9 148.24C69.9 121.33 69.9 94.41 69.9 67.5C80.43 63.37 104.07 63.88 113.29 71.21C127.23 82.3 120.81 102.01 106.01 108.5ZM1035.35 68.5C1034.4 71.34 1033.45 74.19 1032.5 77.03C1022.18 73.17 1000.08 69.61 1001.82 87.5C1002.59 95.41 1010.85 98.71 1017.27 101.27C1025.85 104.68 1034.86 109.16 1037.98 118.53C1038.95 121.44 1039.08 124.44 1038.95 127.5C1037.88 151.57 1005.58 154.08 989.27 144.5C990.01 141.7 990.76 138.91 991.5 136.11C995.3 136.73 998.73 138.92 1002.61 139.75C1012.42 141.86 1027.39 140.51 1027.94 127.5C1028.75 108.72 998.99 111.74 992.08 94.44C991.05 91.88 990.79 89.24 990.83 86.5C991.17 64.72 1019.67 59.88 1035.35 68.5ZM227.09 65.96C241.98 65.96 256.87 65.96 271.76 65.96C271.76 68.95 271.76 71.94 271.76 74.94C260.5 74.94 249.25 74.94 237.99 74.94C237.99 83.62 237.99 92.3 237.99 100.98C248.64 100.98 259.29 100.98 269.94 100.98C269.94 103.92 269.94 106.85 269.94 109.78C259.3 109.78 248.65 109.78 238.01 109.78C238.01 119.64 238.01 129.51 238.01 139.37C249.92 139.37 261.83 139.37 273.74 139.37C273.74 142.34 273.74 145.32 273.74 148.3C258.19 148.3 242.64 148.3 227.09 148.3C227.09 120.85 227.09 93.4 227.09 65.96ZM429.86 65.96C429.86 68.99 429.86 72.01 429.86 75.04C421.52 75.04 413.18 75.04 404.84 75.04C404.84 99.45 404.84 123.86 404.84 148.28C401.19 148.28 397.55 148.28 393.9 148.28C393.9 123.85 393.9 99.42 393.9 74.99C385.53 74.99 377.16 74.99 368.8 74.99C368.8 71.98 368.8 68.97 368.8 65.96C389.15 65.96 409.51 65.96 429.86 65.96ZM527.98 65.96C542.83 65.96 557.68 65.96 572.53 65.96C572.53 68.96 572.53 71.95 572.53 74.95C561.23 74.95 549.93 74.95 538.64 74.95C538.64 83.62 538.64 92.3 538.64 100.97C549.29 100.97 559.94 100.97 570.59 100.97C570.59 103.92 570.59 106.87 570.59 109.81C559.94 109.81 549.29 109.81 538.63 109.81C538.63 119.38 538.63 128.94 538.63 138.5C547.61 141.17 563.82 138.89 573.95 139.5C573.95 142.44 573.95 145.37 573.95 148.31C558.63 148.31 543.3 148.31 527.98 148.31C527.98 120.86 527.98 93.41 527.98 65.96ZM677.45 66.04C681.47 66.04 685.48 66.04 689.5 66.04C701.95 88.59 718.76 108.74 729.43 132.31C729.43 110.23 729.43 88.14 729.43 66.06C732.78 66.06 736.14 66.06 739.49 66.06C739.49 93.43 739.49 120.81 739.49 148.19C735.83 148.19 732.16 148.19 728.5 148.19C720.66 135.93 713.07 123.51 705.34 111.19C699.07 101.18 692.11 91.01 687.66 80.04C687.66 102.76 687.66 125.47 687.66 148.18C684.26 148.18 680.85 148.18 677.45 148.18C677.45 120.8 677.45 93.42 677.45 66.04ZM892.07 65.98C892.07 68.97 892.07 71.95 892.07 74.93C880.8 74.93 869.53 74.93 858.25 74.93C858.25 83.62 858.25 92.31 858.25 100.99C868.87 100.99 879.48 100.99 890.1 100.99C890.1 103.93 890.1 106.86 890.1 109.8C879.48 109.8 868.87 109.8 858.25 109.8C858.25 119.65 858.25 129.5 858.25 139.34C870.11 139.34 881.97 139.34 893.84 139.34C893.84 142.31 893.84 145.27 893.84 148.23C884.06 148.45 874.28 148.31 864.5 148.31C858.92 148.31 852.89 148.97 847.58 147.5C847.58 120.33 847.58 93.16 847.58 65.98C862.41 65.98 877.24 65.98 892.07 65.98ZM81.49 104.5C89.26 104.53 98.36 105.63 104.83 100.34C112.04 94.45 111.65 81.76 103.74 76.73C97.34 72.66 88.28 73.12 81.16 74.5C80.01 81.76 79.64 97.61 81.49 104.5Z" fill="#020200" fill-rule="evenodd" stroke="#020200" stroke-width="0.25" stroke-linejoin="round"/>
</svg>